<?xml version="1.0" encoding="UTF-8" standalone="no"?><svg xmlns="http://www.w3.org/2000/svg" xmlns:xlink="http://www.w3.org/1999/xlink" width="2379" zoomAndPan="magnify" viewBox="0 0 1784.88 1784.99993" height="2379" preserveAspectRatio="xMidYMid meet" version="1.0"><defs><clipPath id="fb55d0672a"><path d="M 0 0.0585938 L 1784.761719 0.0585938 L 1784.761719 1784.820312 L 0 1784.820312 Z M 0 0.0585938 " clip-rule="nonzero"/></clipPath><clipPath id="6d4ef6b92d"><path d="M 892.378906 0.0585938 C 399.53125 0.0585938 0 399.59375 0 892.441406 C 0 1385.289062 399.53125 1784.820312 892.378906 1784.820312 C 1385.226562 1784.820312 1784.761719 1385.289062 1784.761719 892.441406 C 1784.761719 399.59375 1385.226562 0.0585938 892.378906 0.0585938 Z M 892.378906 0.0585938 " clip-rule="nonzero"/></clipPath><linearGradient x1="0.000000000000146752" gradientTransform="matrix(6.971719, 0, 0, 6.971719, -0.00000000000102311, 0.059965)" y1="128" x2="255.999982" gradientUnits="userSpaceOnUse" y2="128" id="f0891623cc"><stop stop-opacity="1" stop-color="rgb(36.499023%, 87.799072%, 90.19928%)" offset="0"/><stop stop-opacity="1" stop-color="rgb(36.355591%, 87.568665%, 90.110779%)" offset="0.00390625"/><stop stop-opacity="1" stop-color="rgb(36.213684%, 87.339783%, 90.023804%)" offset="0.0078125"/><stop stop-opacity="1" stop-color="rgb(36.070251%, 87.109375%, 89.936829%)" offset="0.0117188"/><stop stop-opacity="1" stop-color="rgb(35.928345%, 86.880493%, 89.849854%)" offset="0.015625"/><stop stop-opacity="1" stop-color="rgb(35.786438%, 86.650085%, 89.761353%)" offset="0.0195312"/><stop stop-opacity="1" stop-color="rgb(35.644531%, 86.421204%, 89.674377%)" offset="0.0234375"/><stop stop-opacity="1" stop-color="rgb(35.501099%, 86.190796%, 89.585876%)" offset="0.0273438"/><stop stop-opacity="1" stop-color="rgb(35.359192%, 85.961914%, 89.498901%)" offset="0.03125"/><stop stop-opacity="1" stop-color="rgb(35.215759%, 85.731506%, 89.411926%)" offset="0.0351562"/><stop stop-opacity="1" stop-color="rgb(35.073853%, 85.502625%, 89.324951%)" offset="0.0390625"/><stop stop-opacity="1" stop-color="rgb(34.93042%, 85.272217%, 89.23645%)" offset="0.0429687"/><stop stop-opacity="1" stop-color="rgb(34.788513%, 85.043335%, 89.149475%)" offset="0.046875"/><stop stop-opacity="1" stop-color="rgb(34.645081%, 84.812927%, 89.060974%)" offset="0.0507812"/><stop stop-opacity="1" stop-color="rgb(34.503174%, 84.584045%, 88.973999%)" offset="0.0546875"/><stop stop-opacity="1" stop-color="rgb(34.359741%, 84.353638%, 88.885498%)" offset="0.0585937"/><stop stop-opacity="1" stop-color="rgb(34.217834%, 84.124756%, 88.798523%)" offset="0.0625"/><stop stop-opacity="1" stop-color="rgb(34.074402%, 83.894348%, 88.711548%)" offset="0.0664063"/><stop stop-opacity="1" stop-color="rgb(33.932495%, 83.665466%, 88.624573%)" offset="0.0703125"/><stop stop-opacity="1" stop-color="rgb(33.789062%, 83.435059%, 88.536072%)" offset="0.0742188"/><stop stop-opacity="1" stop-color="rgb(33.647156%, 83.206177%, 88.449097%)" offset="0.078125"/><stop stop-opacity="1" stop-color="rgb(33.503723%, 82.975769%, 88.360596%)" offset="0.0820312"/><stop stop-opacity="1" stop-color="rgb(33.361816%, 82.745361%, 88.273621%)" offset="0.0859375"/><stop stop-opacity="1" stop-color="rgb(33.21991%, 82.514954%, 88.186646%)" offset="0.0898438"/><stop stop-opacity="1" stop-color="rgb(33.078003%, 82.286072%, 88.09967%)" offset="0.09375"/><stop stop-opacity="1" stop-color="rgb(32.93457%, 82.055664%, 88.011169%)" offset="0.0976562"/><stop stop-opacity="1" stop-color="rgb(32.792664%, 81.826782%, 87.924194%)" offset="0.101562"/><stop stop-opacity="1" stop-color="rgb(32.649231%, 81.596375%, 87.835693%)" offset="0.105469"/><stop stop-opacity="1" stop-color="rgb(32.507324%, 81.367493%, 87.748718%)" offset="0.109375"/><stop stop-opacity="1" stop-color="rgb(32.363892%, 81.137085%, 87.661743%)" offset="0.113281"/><stop stop-opacity="1" stop-color="rgb(32.221985%, 80.908203%, 87.574768%)" offset="0.117188"/><stop stop-opacity="1" stop-color="rgb(32.078552%, 80.677795%, 87.486267%)" offset="0.121094"/><stop stop-opacity="1" stop-color="rgb(31.936646%, 80.448914%, 87.399292%)" offset="0.125"/><stop stop-opacity="1" stop-color="rgb(31.793213%, 80.218506%, 87.310791%)" offset="0.128906"/><stop stop-opacity="1" stop-color="rgb(31.651306%, 79.989624%, 87.223816%)" offset="0.132812"/><stop stop-opacity="1" stop-color="rgb(31.507874%, 79.759216%, 87.136841%)" offset="0.136719"/><stop stop-opacity="1" stop-color="rgb(31.365967%, 79.530334%, 87.049866%)" offset="0.140625"/><stop stop-opacity="1" stop-color="rgb(31.222534%, 79.299927%, 86.961365%)" offset="0.144531"/><stop stop-opacity="1" stop-color="rgb(31.080627%, 79.071045%, 86.87439%)" offset="0.148438"/><stop stop-opacity="1" stop-color="rgb(30.938721%, 78.840637%, 86.785889%)" offset="0.152344"/><stop stop-opacity="1" stop-color="rgb(30.796814%, 78.611755%, 86.698914%)" offset="0.15625"/><stop stop-opacity="1" stop-color="rgb(30.653381%, 78.381348%, 86.611938%)" offset="0.160156"/><stop stop-opacity="1" stop-color="rgb(30.511475%, 78.152466%, 86.524963%)" offset="0.164062"/><stop stop-opacity="1" stop-color="rgb(30.368042%, 77.922058%, 86.436462%)" offset="0.167969"/><stop stop-opacity="1" stop-color="rgb(30.226135%, 77.693176%, 86.349487%)" offset="0.171875"/><stop stop-opacity="1" stop-color="rgb(30.082703%, 77.462769%, 86.260986%)" offset="0.175781"/><stop stop-opacity="1" stop-color="rgb(29.940796%, 77.233887%, 86.174011%)" offset="0.179687"/><stop stop-opacity="1" stop-color="rgb(29.797363%, 77.003479%, 86.08551%)" offset="0.183594"/><stop stop-opacity="1" stop-color="rgb(29.655457%, 76.774597%, 85.998535%)" offset="0.1875"/><stop stop-opacity="1" stop-color="rgb(29.512024%, 76.544189%, 85.91156%)" offset="0.191406"/><stop stop-opacity="1" stop-color="rgb(29.370117%, 76.315308%, 85.824585%)" offset="0.195312"/><stop stop-opacity="1" stop-color="rgb(29.226685%, 76.0849%, 85.736084%)" offset="0.199219"/><stop stop-opacity="1" stop-color="rgb(29.084778%, 75.856018%, 85.649109%)" offset="0.203125"/><stop stop-opacity="1" stop-color="rgb(28.941345%, 75.62561%, 85.560608%)" offset="0.207031"/><stop stop-opacity="1" stop-color="rgb(28.799438%, 75.396729%, 85.473633%)" offset="0.210937"/><stop stop-opacity="1" stop-color="rgb(28.657532%, 75.166321%, 85.386658%)" offset="0.214844"/><stop stop-opacity="1" stop-color="rgb(28.515625%, 74.937439%, 85.299683%)" offset="0.21875"/><stop stop-opacity="1" stop-color="rgb(28.372192%, 74.707031%, 85.211182%)" offset="0.222656"/><stop stop-opacity="1" stop-color="rgb(28.230286%, 74.476624%, 85.124207%)" offset="0.226562"/><stop stop-opacity="1" stop-color="rgb(28.086853%, 74.246216%, 85.035706%)" offset="0.230469"/><stop stop-opacity="1" stop-color="rgb(27.944946%, 74.017334%, 84.94873%)" offset="0.234375"/><stop stop-opacity="1" stop-color="rgb(27.801514%, 73.786926%, 84.861755%)" offset="0.238281"/><stop stop-opacity="1" stop-color="rgb(27.659607%, 73.558044%, 84.77478%)" offset="0.242187"/><stop stop-opacity="1" stop-color="rgb(27.516174%, 73.327637%, 84.686279%)" offset="0.246094"/><stop stop-opacity="1" stop-color="rgb(27.374268%, 73.098755%, 84.599304%)" offset="0.25"/><stop stop-opacity="1" stop-color="rgb(27.230835%, 72.868347%, 84.510803%)" offset="0.253906"/><stop stop-opacity="1" stop-color="rgb(27.088928%, 72.639465%, 84.423828%)" offset="0.257812"/><stop stop-opacity="1" stop-color="rgb(26.945496%, 72.409058%, 84.336853%)" offset="0.261719"/><stop stop-opacity="1" stop-color="rgb(26.803589%, 72.180176%, 84.249878%)" offset="0.265625"/><stop stop-opacity="1" stop-color="rgb(26.660156%, 71.949768%, 84.161377%)" offset="0.269531"/><stop stop-opacity="1" stop-color="rgb(26.51825%, 71.720886%, 84.074402%)" offset="0.273437"/><stop stop-opacity="1" stop-color="rgb(26.374817%, 71.490479%, 83.985901%)" offset="0.277344"/><stop stop-opacity="1" stop-color="rgb(26.23291%, 71.261597%, 83.898926%)" offset="0.28125"/><stop stop-opacity="1" stop-color="rgb(26.091003%, 71.031189%, 83.811951%)" offset="0.285156"/><stop stop-opacity="1" stop-color="rgb(25.949097%, 70.802307%, 83.724976%)" offset="0.289063"/><stop stop-opacity="1" stop-color="rgb(25.805664%, 70.571899%, 83.636475%)" offset="0.292969"/><stop stop-opacity="1" stop-color="rgb(25.663757%, 70.343018%, 83.5495%)" offset="0.296875"/><stop stop-opacity="1" stop-color="rgb(25.520325%, 70.11261%, 83.460999%)" offset="0.300781"/><stop stop-opacity="1" stop-color="rgb(25.378418%, 69.883728%, 83.374023%)" offset="0.304688"/><stop stop-opacity="1" stop-color="rgb(25.234985%, 69.65332%, 83.285522%)" offset="0.308594"/><stop stop-opacity="1" stop-color="rgb(25.093079%, 69.424438%, 83.198547%)" offset="0.3125"/><stop stop-opacity="1" stop-color="rgb(24.949646%, 69.194031%, 83.111572%)" offset="0.316406"/><stop stop-opacity="1" stop-color="rgb(24.807739%, 68.965149%, 83.024597%)" offset="0.320312"/><stop stop-opacity="1" stop-color="rgb(24.664307%, 68.734741%, 82.936096%)" offset="0.324219"/><stop stop-opacity="1" stop-color="rgb(24.5224%, 68.505859%, 82.849121%)" offset="0.328125"/><stop stop-opacity="1" stop-color="rgb(24.378967%, 68.275452%, 82.76062%)" offset="0.332031"/><stop stop-opacity="1" stop-color="rgb(24.237061%, 68.04657%, 82.673645%)" offset="0.335938"/><stop stop-opacity="1" stop-color="rgb(24.093628%, 67.816162%, 82.58667%)" offset="0.339844"/><stop stop-opacity="1" stop-color="rgb(23.951721%, 67.58728%, 82.499695%)" offset="0.34375"/><stop stop-opacity="1" stop-color="rgb(23.809814%, 67.356873%, 82.411194%)" offset="0.347656"/><stop stop-opacity="1" stop-color="rgb(23.667908%, 67.127991%, 82.324219%)" offset="0.351562"/><stop stop-opacity="1" stop-color="rgb(23.524475%, 66.897583%, 82.235718%)" offset="0.355469"/><stop stop-opacity="1" stop-color="rgb(23.382568%, 66.668701%, 82.148743%)" offset="0.359375"/><stop stop-opacity="1" stop-color="rgb(23.239136%, 66.438293%, 82.061768%)" offset="0.363281"/><stop stop-opacity="1" stop-color="rgb(23.097229%, 66.207886%, 81.974792%)" offset="0.367187"/><stop stop-opacity="1" stop-color="rgb(22.953796%, 65.977478%, 81.886292%)" offset="0.371094"/><stop stop-opacity="1" stop-color="rgb(22.81189%, 65.748596%, 81.799316%)" offset="0.375"/><stop stop-opacity="1" stop-color="rgb(22.668457%, 65.518188%, 81.710815%)" offset="0.378906"/><stop stop-opacity="1" stop-color="rgb(22.52655%, 65.289307%, 81.62384%)" offset="0.382813"/><stop stop-opacity="1" stop-color="rgb(22.383118%, 65.058899%, 81.536865%)" offset="0.386719"/><stop stop-opacity="1" stop-color="rgb(22.241211%, 64.830017%, 81.44989%)" offset="0.390625"/><stop stop-opacity="1" stop-color="rgb(22.097778%, 64.599609%, 81.361389%)" offset="0.394531"/><stop stop-opacity="1" stop-color="rgb(21.955872%, 64.370728%, 81.274414%)" offset="0.398438"/><stop stop-opacity="1" stop-color="rgb(21.812439%, 64.14032%, 81.185913%)" offset="0.402344"/><stop stop-opacity="1" stop-color="rgb(21.670532%, 63.911438%, 81.098938%)" offset="0.40625"/><stop stop-opacity="1" stop-color="rgb(21.528625%, 63.68103%, 81.011963%)" offset="0.410156"/><stop stop-opacity="1" stop-color="rgb(21.386719%, 63.452148%, 80.924988%)" offset="0.414062"/><stop stop-opacity="1" stop-color="rgb(21.243286%, 63.221741%, 80.836487%)" offset="0.417969"/><stop stop-opacity="1" stop-color="rgb(21.101379%, 62.992859%, 80.749512%)" offset="0.421875"/><stop stop-opacity="1" stop-color="rgb(20.957947%, 62.762451%, 80.661011%)" offset="0.425781"/><stop stop-opacity="1" stop-color="rgb(20.81604%, 62.533569%, 80.574036%)" offset="0.429688"/><stop stop-opacity="1" stop-color="rgb(20.672607%, 62.303162%, 80.485535%)" offset="0.433594"/><stop stop-opacity="1" stop-color="rgb(20.530701%, 62.07428%, 80.39856%)" offset="0.4375"/><stop stop-opacity="1" stop-color="rgb(20.387268%, 61.843872%, 80.311584%)" offset="0.441406"/><stop stop-opacity="1" stop-color="rgb(20.245361%, 61.61499%, 80.224609%)" offset="0.445312"/><stop stop-opacity="1" stop-color="rgb(20.101929%, 61.384583%, 80.136108%)" offset="0.449219"/><stop stop-opacity="1" stop-color="rgb(19.960022%, 61.155701%, 80.049133%)" offset="0.453125"/><stop stop-opacity="1" stop-color="rgb(19.816589%, 60.925293%, 79.960632%)" offset="0.457031"/><stop stop-opacity="1" stop-color="rgb(19.674683%, 60.696411%, 79.873657%)" offset="0.460937"/><stop stop-opacity="1" stop-color="rgb(19.53125%, 60.466003%, 79.786682%)" offset="0.464844"/><stop stop-opacity="1" stop-color="rgb(19.389343%, 60.237122%, 79.699707%)" offset="0.46875"/><stop stop-opacity="1" stop-color="rgb(19.245911%, 60.006714%, 79.611206%)" offset="0.472656"/><stop stop-opacity="1" stop-color="rgb(19.104004%, 59.777832%, 79.524231%)" offset="0.476563"/><stop stop-opacity="1" stop-color="rgb(18.962097%, 59.547424%, 79.43573%)" offset="0.480469"/><stop stop-opacity="1" stop-color="rgb(18.82019%, 59.318542%, 79.348755%)" offset="0.484375"/><stop stop-opacity="1" stop-color="rgb(18.676758%, 59.088135%, 79.26178%)" offset="0.488281"/><stop stop-opacity="1" stop-color="rgb(18.534851%, 58.859253%, 79.174805%)" offset="0.492188"/><stop stop-opacity="1" stop-color="rgb(18.391418%, 58.628845%, 79.086304%)" offset="0.496094"/><stop stop-opacity="1" stop-color="rgb(18.249512%, 58.399963%, 78.999329%)" offset="0.5"/><stop stop-opacity="1" stop-color="rgb(18.106079%, 58.169556%, 78.910828%)" offset="0.503906"/><stop stop-opacity="1" stop-color="rgb(17.964172%, 57.939148%, 78.823853%)" offset="0.507812"/><stop stop-opacity="1" stop-color="rgb(17.82074%, 57.70874%, 78.736877%)" offset="0.511719"/><stop stop-opacity="1" stop-color="rgb(17.678833%, 57.479858%, 78.649902%)" offset="0.515625"/><stop stop-opacity="1" stop-color="rgb(17.5354%, 57.249451%, 78.561401%)" offset="0.519531"/><stop stop-opacity="1" stop-color="rgb(17.393494%, 57.020569%, 78.474426%)" offset="0.523438"/><stop stop-opacity="1" stop-color="rgb(17.250061%, 56.790161%, 78.385925%)" offset="0.527344"/><stop stop-opacity="1" stop-color="rgb(17.108154%, 56.561279%, 78.29895%)" offset="0.53125"/><stop stop-opacity="1" stop-color="rgb(16.964722%, 56.330872%, 78.211975%)" offset="0.535156"/><stop stop-opacity="1" stop-color="rgb(16.822815%, 56.10199%, 78.125%)" offset="0.539063"/><stop stop-opacity="1" stop-color="rgb(16.680908%, 55.871582%, 78.036499%)" offset="0.542969"/><stop stop-opacity="1" stop-color="rgb(16.539001%, 55.6427%, 77.949524%)" offset="0.546875"/><stop stop-opacity="1" stop-color="rgb(16.395569%, 55.412292%, 77.861023%)" offset="0.550781"/><stop stop-opacity="1" stop-color="rgb(16.253662%, 55.183411%, 77.774048%)" offset="0.554688"/><stop stop-opacity="1" stop-color="rgb(16.110229%, 54.953003%, 77.685547%)" offset="0.558594"/><stop stop-opacity="1" stop-color="rgb(15.968323%, 54.724121%, 77.598572%)" offset="0.5625"/><stop stop-opacity="1" stop-color="rgb(15.82489%, 54.493713%, 77.511597%)" offset="0.566406"/><stop stop-opacity="1" stop-color="rgb(15.682983%, 54.264832%, 77.424622%)" offset="0.570312"/><stop stop-opacity="1" stop-color="rgb(15.539551%, 54.034424%, 77.336121%)" offset="0.574219"/><stop stop-opacity="1" stop-color="rgb(15.397644%, 53.805542%, 77.249146%)" offset="0.578125"/><stop stop-opacity="1" stop-color="rgb(15.254211%, 53.575134%, 77.160645%)" offset="0.582031"/><stop stop-opacity="1" stop-color="rgb(15.112305%, 53.346252%, 77.073669%)" offset="0.585938"/><stop stop-opacity="1" stop-color="rgb(14.968872%, 53.115845%, 76.986694%)" offset="0.589844"/><stop stop-opacity="1" stop-color="rgb(14.826965%, 52.886963%, 76.899719%)" offset="0.59375"/><stop stop-opacity="1" stop-color="rgb(14.683533%, 52.656555%, 76.811218%)" offset="0.597656"/><stop stop-opacity="1" stop-color="rgb(14.541626%, 52.427673%, 76.724243%)" offset="0.601562"/><stop stop-opacity="1" stop-color="rgb(14.399719%, 52.197266%, 76.635742%)" offset="0.605469"/><stop stop-opacity="1" stop-color="rgb(14.257812%, 51.968384%, 76.548767%)" offset="0.609375"/><stop stop-opacity="1" stop-color="rgb(14.11438%, 51.737976%, 76.461792%)" offset="0.613281"/><stop stop-opacity="1" stop-color="rgb(13.972473%, 51.509094%, 76.374817%)" offset="0.617188"/><stop stop-opacity="1" stop-color="rgb(13.829041%, 51.278687%, 76.286316%)" offset="0.621094"/><stop stop-opacity="1" stop-color="rgb(13.687134%, 51.049805%, 76.199341%)" offset="0.625"/><stop stop-opacity="1" stop-color="rgb(13.543701%, 50.819397%, 76.11084%)" offset="0.628906"/><stop stop-opacity="1" stop-color="rgb(13.401794%, 50.590515%, 76.023865%)" offset="0.632812"/><stop stop-opacity="1" stop-color="rgb(13.258362%, 50.360107%, 75.93689%)" offset="0.636719"/><stop stop-opacity="1" stop-color="rgb(13.116455%, 50.131226%, 75.849915%)" offset="0.640625"/><stop stop-opacity="1" stop-color="rgb(12.973022%, 49.900818%, 75.761414%)" offset="0.644531"/><stop stop-opacity="1" stop-color="rgb(12.831116%, 49.67041%, 75.674438%)" offset="0.648437"/><stop stop-opacity="1" stop-color="rgb(12.687683%, 49.440002%, 75.585938%)" offset="0.652344"/><stop stop-opacity="1" stop-color="rgb(12.545776%, 49.211121%, 75.498962%)" offset="0.65625"/><stop stop-opacity="1" stop-color="rgb(12.402344%, 48.980713%, 75.410461%)" offset="0.660156"/><stop stop-opacity="1" stop-color="rgb(12.260437%, 48.751831%, 75.323486%)" offset="0.664062"/><stop stop-opacity="1" stop-color="rgb(12.117004%, 48.521423%, 75.236511%)" offset="0.667969"/><stop stop-opacity="1" stop-color="rgb(11.975098%, 48.292542%, 75.149536%)" offset="0.671875"/><stop stop-opacity="1" stop-color="rgb(11.833191%, 48.062134%, 75.061035%)" offset="0.675781"/><stop stop-opacity="1" stop-color="rgb(11.691284%, 47.833252%, 74.97406%)" offset="0.679688"/><stop stop-opacity="1" stop-color="rgb(11.547852%, 47.602844%, 74.885559%)" offset="0.683594"/><stop stop-opacity="1" stop-color="rgb(11.405945%, 47.373962%, 74.798584%)" offset="0.6875"/><stop stop-opacity="1" stop-color="rgb(11.262512%, 47.143555%, 74.711609%)" offset="0.691406"/><stop stop-opacity="1" stop-color="rgb(11.120605%, 46.914673%, 74.624634%)" offset="0.695312"/><stop stop-opacity="1" stop-color="rgb(10.977173%, 46.684265%, 74.536133%)" offset="0.699219"/><stop stop-opacity="1" stop-color="rgb(10.835266%, 46.455383%, 74.449158%)" offset="0.703125"/><stop stop-opacity="1" stop-color="rgb(10.691833%, 46.224976%, 74.360657%)" offset="0.707031"/><stop stop-opacity="1" stop-color="rgb(10.549927%, 45.996094%, 74.273682%)" offset="0.710938"/><stop stop-opacity="1" stop-color="rgb(10.406494%, 45.765686%, 74.186707%)" offset="0.714844"/><stop stop-opacity="1" stop-color="rgb(10.264587%, 45.536804%, 74.099731%)" offset="0.71875"/><stop stop-opacity="1" stop-color="rgb(10.121155%, 45.306396%, 74.01123%)" offset="0.722656"/><stop stop-opacity="1" stop-color="rgb(9.979248%, 45.077515%, 73.924255%)" offset="0.726562"/><stop stop-opacity="1" stop-color="rgb(9.835815%, 44.847107%, 73.835754%)" offset="0.730469"/><stop stop-opacity="1" stop-color="rgb(9.693909%, 44.618225%, 73.748779%)" offset="0.734375"/><stop stop-opacity="1" stop-color="rgb(9.552002%, 44.387817%, 73.661804%)" offset="0.738281"/><stop stop-opacity="1" stop-color="rgb(9.410095%, 44.158936%, 73.574829%)" offset="0.742188"/><stop stop-opacity="1" stop-color="rgb(9.266663%, 43.928528%, 73.486328%)" offset="0.746094"/><stop stop-opacity="1" stop-color="rgb(9.124756%, 43.699646%, 73.399353%)" offset="0.75"/><stop stop-opacity="1" stop-color="rgb(8.981323%, 43.469238%, 73.310852%)" offset="0.753906"/><stop stop-opacity="1" stop-color="rgb(8.839417%, 43.240356%, 73.223877%)" offset="0.757812"/><stop stop-opacity="1" stop-color="rgb(8.695984%, 43.009949%, 73.136902%)" offset="0.761719"/><stop stop-opacity="1" stop-color="rgb(8.554077%, 42.781067%, 73.049927%)" offset="0.765625"/><stop stop-opacity="1" stop-color="rgb(8.410645%, 42.550659%, 72.961426%)" offset="0.769531"/><stop stop-opacity="1" stop-color="rgb(8.268738%, 42.321777%, 72.874451%)" offset="0.773438"/><stop stop-opacity="1" stop-color="rgb(8.125305%, 42.09137%, 72.78595%)" offset="0.777344"/><stop stop-opacity="1" stop-color="rgb(7.983398%, 41.862488%, 72.698975%)" offset="0.78125"/><stop stop-opacity="1" stop-color="rgb(7.839966%, 41.63208%, 72.610474%)" offset="0.785156"/><stop stop-opacity="1" stop-color="rgb(7.698059%, 41.401672%, 72.523499%)" offset="0.789062"/><stop stop-opacity="1" stop-color="rgb(7.554626%, 41.171265%, 72.436523%)" offset="0.792969"/><stop stop-opacity="1" stop-color="rgb(7.41272%, 40.942383%, 72.349548%)" offset="0.796875"/><stop stop-opacity="1" stop-color="rgb(7.270813%, 40.711975%, 72.261047%)" offset="0.800781"/><stop stop-opacity="1" stop-color="rgb(7.128906%, 40.483093%, 72.174072%)" offset="0.804688"/><stop stop-opacity="1" stop-color="rgb(6.985474%, 40.252686%, 72.085571%)" offset="0.808594"/><stop stop-opacity="1" stop-color="rgb(6.843567%, 40.023804%, 71.998596%)" offset="0.8125"/><stop stop-opacity="1" stop-color="rgb(6.700134%, 39.793396%, 71.911621%)" offset="0.816406"/><stop stop-opacity="1" stop-color="rgb(6.558228%, 39.564514%, 71.824646%)" offset="0.820312"/><stop stop-opacity="1" stop-color="rgb(6.414795%, 39.334106%, 71.736145%)" offset="0.824219"/><stop stop-opacity="1" stop-color="rgb(6.272888%, 39.105225%, 71.64917%)" offset="0.828125"/><stop stop-opacity="1" stop-color="rgb(6.129456%, 38.874817%, 71.560669%)" offset="0.832031"/><stop stop-opacity="1" stop-color="rgb(5.987549%, 38.645935%, 71.473694%)" offset="0.835938"/><stop stop-opacity="1" stop-color="rgb(5.844116%, 38.415527%, 71.386719%)" offset="0.839844"/><stop stop-opacity="1" stop-color="rgb(5.702209%, 38.186646%, 71.299744%)" offset="0.84375"/><stop stop-opacity="1" stop-color="rgb(5.558777%, 37.956238%, 71.211243%)" offset="0.847656"/><stop stop-opacity="1" stop-color="rgb(5.41687%, 37.727356%, 71.124268%)" offset="0.851563"/><stop stop-opacity="1" stop-color="rgb(5.273438%, 37.496948%, 71.035767%)" offset="0.855469"/><stop stop-opacity="1" stop-color="rgb(5.131531%, 37.268066%, 70.948792%)" offset="0.859375"/><stop stop-opacity="1" stop-color="rgb(4.988098%, 37.037659%, 70.861816%)" offset="0.863281"/><stop stop-opacity="1" stop-color="rgb(4.846191%, 36.808777%, 70.774841%)" offset="0.867188"/><stop stop-opacity="1" stop-color="rgb(4.704285%, 36.578369%, 70.68634%)" offset="0.871094"/><stop stop-opacity="1" stop-color="rgb(4.562378%, 36.349487%, 70.599365%)" offset="0.875"/><stop stop-opacity="1" stop-color="rgb(4.418945%, 36.11908%, 70.510864%)" offset="0.878906"/><stop stop-opacity="1" stop-color="rgb(4.277039%, 35.890198%, 70.423889%)" offset="0.882812"/><stop stop-opacity="1" stop-color="rgb(4.133606%, 35.65979%, 70.336914%)" offset="0.886719"/><stop stop-opacity="1" stop-color="rgb(3.991699%, 35.430908%, 70.249939%)" offset="0.890625"/><stop stop-opacity="1" stop-color="rgb(3.848267%, 35.2005%, 70.161438%)" offset="0.894531"/><stop stop-opacity="1" stop-color="rgb(3.70636%, 34.971619%, 70.074463%)" offset="0.898438"/><stop stop-opacity="1" stop-color="rgb(3.562927%, 34.741211%, 69.985962%)" offset="0.902344"/><stop stop-opacity="1" stop-color="rgb(3.421021%, 34.512329%, 69.898987%)" offset="0.90625"/><stop stop-opacity="1" stop-color="rgb(3.277588%, 34.281921%, 69.810486%)" offset="0.910156"/><stop stop-opacity="1" stop-color="rgb(3.135681%, 34.05304%, 69.723511%)" offset="0.914062"/><stop stop-opacity="1" stop-color="rgb(2.992249%, 33.822632%, 69.636536%)" offset="0.917969"/><stop stop-opacity="1" stop-color="rgb(2.850342%, 33.59375%, 69.549561%)" offset="0.921875"/><stop stop-opacity="1" stop-color="rgb(2.706909%, 33.363342%, 69.46106%)" offset="0.925781"/><stop stop-opacity="1" stop-color="rgb(2.565002%, 33.132935%, 69.374084%)" offset="0.929688"/><stop stop-opacity="1" stop-color="rgb(2.423096%, 32.902527%, 69.285583%)" offset="0.933594"/><stop stop-opacity="1" stop-color="rgb(2.281189%, 32.673645%, 69.198608%)" offset="0.9375"/><stop stop-opacity="1" stop-color="rgb(2.137756%, 32.443237%, 69.111633%)" offset="0.941406"/><stop stop-opacity="1" stop-color="rgb(1.99585%, 32.214355%, 69.024658%)" offset="0.945312"/><stop stop-opacity="1" stop-color="rgb(1.852417%, 31.983948%, 68.936157%)" offset="0.949219"/><stop stop-opacity="1" stop-color="rgb(1.71051%, 31.755066%, 68.849182%)" offset="0.953125"/><stop stop-opacity="1" stop-color="rgb(1.567078%, 31.524658%, 68.760681%)" offset="0.957031"/><stop stop-opacity="1" stop-color="rgb(1.425171%, 31.295776%, 68.673706%)" offset="0.960937"/><stop stop-opacity="1" stop-color="rgb(1.281738%, 31.065369%, 68.586731%)" offset="0.964844"/><stop stop-opacity="1" stop-color="rgb(1.139832%, 30.836487%, 68.499756%)" offset="0.96875"/><stop stop-opacity="1" stop-color="rgb(0.996399%, 30.606079%, 68.411255%)" offset="0.972656"/><stop stop-opacity="1" stop-color="rgb(0.854492%, 30.377197%, 68.32428%)" offset="0.976562"/><stop stop-opacity="1" stop-color="rgb(0.71106%, 30.14679%, 68.235779%)" offset="0.980469"/><stop stop-opacity="1" stop-color="rgb(0.569153%, 29.917908%, 68.148804%)" offset="0.984375"/><stop stop-opacity="1" stop-color="rgb(0.42572%, 29.6875%, 68.061829%)" offset="0.988281"/><stop stop-opacity="1" stop-color="rgb(0.283813%, 29.458618%, 67.974854%)" offset="0.992188"/><stop stop-opacity="1" stop-color="rgb(0.141907%, 29.22821%, 67.886353%)" offset="0.996094"/><stop stop-opacity="1" stop-color="rgb(0%, 28.999329%, 67.799377%)" offset="1"/></linearGradient><clipPath id="4decc9fbee"><path d="M 553 211 L 820 211 L 820 478 L 553 478 Z M 553 211 " clip-rule="nonzero"/></clipPath><clipPath id="4594984181"><path d="M 924.710938 357.691406 L 683.019531 634.5 L 441.234375 423.394531 L 682.925781 146.582031 Z M 924.710938 357.691406 " clip-rule="nonzero"/></clipPath><clipPath id="cfbb94c61a"><path d="M 682.960938 634.570312 L 924.648438 357.761719 L 682.863281 146.652344 L 441.171875 423.464844 Z M 682.960938 634.570312 " clip-rule="nonzero"/></clipPath><clipPath id="292fbd692d"><path d="M 561 307 L 900 307 L 900 533 L 561 533 Z M 561 307 " clip-rule="nonzero"/></clipPath><clipPath id="1e81f3620e"><path d="M 924.710938 357.691406 L 683.019531 634.5 L 441.234375 423.394531 L 682.925781 146.582031 Z M 924.710938 357.691406 " clip-rule="nonzero"/></clipPath><clipPath id="d2bab86e7d"><path d="M 682.960938 634.570312 L 924.648438 357.761719 L 682.863281 146.652344 L 441.171875 423.464844 Z M 682.960938 634.570312 " clip-rule="nonzero"/></clipPath><clipPath id="3513d298ae"><path d="M 473 418 L 518 418 L 518 481 L 473 481 Z M 473 418 " clip-rule="nonzero"/></clipPath><clipPath id="b1afed6d73"><path d="M 924.710938 357.691406 L 683.019531 634.5 L 441.234375 423.394531 L 682.925781 146.582031 Z M 924.710938 357.691406 " clip-rule="nonzero"/></clipPath><clipPath id="05a4bb8525"><path d="M 682.960938 634.570312 L 924.648438 357.761719 L 682.863281 146.652344 L 441.171875 423.464844 Z M 682.960938 634.570312 " clip-rule="nonzero"/></clipPath><clipPath id="ce6787c06e"><path d="M 521 436 L 562 436 L 562 481 L 521 481 Z M 521 436 " clip-rule="nonzero"/></clipPath><clipPath id="10e703ebbc"><path d="M 924.710938 357.691406 L 683.019531 634.5 L 441.234375 423.394531 L 682.925781 146.582031 Z M 924.710938 357.691406 " clip-rule="nonzero"/></clipPath><clipPath id="e3d871ab4e"><path d="M 682.960938 634.570312 L 924.648438 357.761719 L 682.863281 146.652344 L 441.171875 423.464844 Z M 682.960938 634.570312 " clip-rule="nonzero"/></clipPath><clipPath id="f1e061a90b"><path d="M 493 392 L 559 392 L 559 437 L 493 437 Z M 493 392 " clip-rule="nonzero"/></clipPath><clipPath id="e37faa3de9"><path d="M 924.710938 357.691406 L 683.019531 634.5 L 441.234375 423.394531 L 682.925781 146.582031 Z M 924.710938 357.691406 " clip-rule="nonzero"/></clipPath><clipPath id="fffbf9beef"><path d="M 682.960938 634.570312 L 924.648438 357.761719 L 682.863281 146.652344 L 441.171875 423.464844 Z M 682.960938 634.570312 " clip-rule="nonzero"/></clipPath></defs><g clip-path="url(#fb55d0672a)"><g clip-path="url(#6d4ef6b92d)"><path fill="url(#f0891623cc)" d="M 0 0.0585938 L 0 1784.820312 L 1784.761719 1784.820312 L 1784.761719 0.0585938 Z M 0 0.0585938 " fill-rule="nonzero"/></g></g><path fill="#ffffff" d="M 891.652344 1016.605469 C 855.445312 1024.28125 820.421875 1037.507812 788.179688 1055.679688 C 751.851562 1076.160156 719.355469 1102.675781 684.925781 1126.195312 C 650.492188 1149.714844 613.09375 1170.628906 572 1177.71875 C 530.90625 1184.808594 483.679688 1180.601562 453.789062 1151.519531 C 466.167969 1192.691406 484.328125 1221.550781 525.5 1233.933594 C 497.878906 1261.761719 470.257812 1289.589844 442.632812 1317.410156 C 406.175781 1263.628906 384.296875 1200.253906 380.960938 1134.667969 C 375.863281 1034.492188 412.738281 929.128906 483.628906 858.175781 C 420.980469 892.535156 374.941406 953.421875 351.914062 1021.0625 C 328.886719 1088.699219 327.75 1162.585938 341.296875 1232.742188 C 346.589844 1260.15625 354.113281 1287.273438 365.804688 1312.628906 C 390.15625 1365.421875 431.25 1408.136719 472.859375 1449.019531 C 474.53125 1452.253906 476.421875 1455.347656 478.792969 1458.109375 C 483.335938 1463.402344 488.167969 1466.449219 495.140625 1466.15625 C 513.453125 1403.8125 532.253906 1340.398438 568.21875 1286.273438 C 576.949219 1273.136719 586.53125 1260.640625 596.855469 1248.851562 C 654.902344 1212.378906 714.222656 1177.9375 774.710938 1145.671875 C 774.742188 1145.003906 774.722656 1144.328125 774.742188 1143.664062 C 802.40625 1092.214844 842.773438 1048.628906 891.652344 1016.605469 Z M 891.652344 1016.605469 " fill-opacity="1" fill-rule="nonzero"/><path fill="#ffffff" d="M 700.5 796.941406 C 710.742188 824.351562 730.324219 847.890625 753.101562 866.488281 C 800.796875 905.445312 867.714844 924.503906 929.050781 918.96875 C 909.894531 910.945312 891.417969 901.292969 873.882812 890.164062 C 852.207031 876.402344 831.796875 860.203125 815.777344 840.140625 C 799.753906 820.074219 788.265625 795.90625 785.777344 770.351562 C 781.507812 781.730469 777.238281 793.097656 772.964844 804.476562 C 759.480469 781.878906 753.59375 754.847656 756.445312 728.6875 C 759.296875 702.53125 770.878906 677.402344 788.917969 658.242188 C 806.34375 639.734375 838.425781 634.117188 863.667969 637.15625 C 873.589844 638.355469 915.933594 638.058594 955.101562 667.4375 C 949.472656 649.671875 941.378906 636 931.179688 625.019531 C 969.898438 616.175781 1009.585938 611.394531 1048.492188 618.105469 C 1081.652344 623.828125 1112.84375 637.660156 1145.515625 645.714844 C 1178.1875 653.761719 1217.757812 651.253906 1246.621094 633.96875 C 1225.707031 664.75 1194.730469 688.578125 1159.605469 700.886719 C 1193.648438 701.972656 1227.949219 692.214844 1256.332031 673.386719 C 1289.109375 651.644531 1313.222656 618.714844 1330.332031 583.296875 C 1347.441406 547.878906 1359.191406 512.101562 1369.746094 474.214844 C 1379.371094 495.605469 1388.359375 517.453125 1393.226562 540.394531 C 1403.296875 587.863281 1394.671875 639.042969 1369.582031 680.582031 C 1342.980469 724.644531 1300.230469 756.097656 1258.605469 786.363281 C 1225.714844 810.273438 1195.132812 835.027344 1162.242188 858.945312 C 1218.96875 840.992188 1273.457031 815.984375 1324.0625 784.679688 C 1358.839844 763.164062 1392.511719 737.925781 1414.890625 703.699219 C 1457.019531 639.277344 1451.871094 553.984375 1427.445312 480.988281 C 1393.261719 378.820312 1321.820312 287.1875 1224.957031 240.023438 C 1128.097656 192.863281 986.691406 171.558594 920.339844 256.433594 C 917.652344 259.871094 917.226562 264.652344 918.195312 268.902344 C 919.164062 273.152344 921.351562 277.015625 923.511719 280.800781 C 934.367188 299.8125 945.222656 318.828125 956.074219 337.839844 C 951.382812 319.894531 950.042969 301.078125 952.152344 282.652344 C 959.285156 302.304688 973.660156 323.40625 985.226562 340.820312 C 1026.308594 309.941406 1080.507812 297.148438 1131.058594 306.410156 C 1181.609375 315.671875 1227.753906 346.847656 1255.21875 390.289062 C 1267.523438 409.753906 1276.265625 431.886719 1277.53125 454.878906 C 1279.050781 482.476562 1269.59375 510.074219 1253.757812 532.730469 C 1237.925781 555.382812 1216.011719 573.339844 1192.039062 587.09375 C 1212.441406 580.964844 1232.164062 575.804688 1252.566406 569.667969 C 1223.390625 597.199219 1179.988281 608.757812 1140.980469 599.386719 C 1118.671875 594.03125 1098.402344 582.496094 1076.859375 574.601562 C 1016.222656 552.382812 945.371094 561.914062 891.75 597.558594 C 862.457031 583.921875 828.761719 579.929688 797.105469 586.390625 C 769.84375 591.953125 743.699219 605.5625 726.125 627.128906 C 707.875 649.523438 700.046875 678.601562 695.625 707.148438 C 693.558594 720.480469 692.152344 734.058594 692.183594 747.550781 C 632.015625 756.433594 572.371094 779.679688 529.417969 822.375 C 583.410156 800.601562 642.542969 791.886719 700.5 796.941406 Z M 700.5 796.941406 " fill-opacity="1" fill-rule="nonzero"/><path fill="#ffffff" d="M 1295.191406 838.195312 C 1267.839844 854.316406 1238.472656 867.546875 1214.105469 887.867188 C 1204.292969 896.046875 1195.824219 906.113281 1189.351562 917.335938 C 1189.347656 920.304688 1189.621094 923.300781 1190.125 926.1875 C 1191.917969 936.246094 1196.027344 945.734375 1199.164062 955.480469 C 1202.351562 965.21875 1204.628906 975.574219 1202.699219 985.625 C 1200.976562 994.441406 1196.132812 1002.265625 1191.226562 1009.769531 C 1172.238281 1038.75 1120.058594 1091.03125 1114.316406 1158.691406 C 1138.1875 1117.171875 1169.328125 1079.785156 1205.894531 1048.789062 C 1220.53125 1036.367188 1236.117188 1024.871094 1248.746094 1010.445312 C 1261.371094 995.976562 1271 977.832031 1270.816406 958.640625 C 1270.679688 939.445312 1255.484375 914.808594 1236.964844 909.871094 C 1325.40625 881.265625 1398.902344 809.75 1429.894531 722.097656 C 1394.363281 774.765625 1349.898438 806.003906 1295.191406 838.195312 Z M 1295.191406 838.195312 " fill-opacity="1" fill-rule="nonzero"/><path fill="#ffffff" d="M 1176.917969 1424.804688 C 1176.125 1427.710938 1175.335938 1430.613281 1174.539062 1433.519531 C 1177.058594 1430.683594 1179.496094 1427.777344 1181.957031 1424.890625 C 1180.285156 1424.71875 1178.605469 1424.644531 1176.917969 1424.804688 Z M 1176.917969 1424.804688 " fill-opacity="1" fill-rule="nonzero"/><path fill="#ffffff" d="M 1242.984375 1086.628906 C 1236.597656 1078.445312 1232.089844 1063.65625 1228.75 1053.820312 C 1214.585938 1078.335938 1212.230469 1112.738281 1226.21875 1137.359375 C 1214.554688 1117.289062 1204.011719 1093.53125 1192.347656 1073.460938 C 1192.347656 1074.253906 1192.347656 1075.042969 1192.347656 1075.832031 C 1192.347656 1121.988281 1229.289062 1158.65625 1251 1199.386719 C 1261.835938 1219.722656 1272.972656 1241.292969 1272.082031 1264.320312 C 1271.441406 1280.871094 1264.589844 1296.496094 1257.203125 1311.320312 C 1236.878906 1352.058594 1211.515625 1390.261719 1181.964844 1424.898438 C 1200.84375 1426.839844 1219.03125 1447.765625 1236.648438 1440.421875 C 1244.972656 1436.949219 1250.683594 1429.308594 1255.960938 1421.992188 C 1290.304688 1374.335938 1325.234375 1322.160156 1325.933594 1263.417969 C 1326.328125 1230.207031 1315.457031 1197.640625 1299.710938 1168.398438 C 1283.964844 1139.15625 1263.417969 1112.8125 1242.984375 1086.628906 Z M 1242.984375 1086.628906 " fill-opacity="1" fill-rule="nonzero"/><path fill="#ffffff" d="M 1094.648438 1375.074219 C 1097.875 1389.109375 1109.664062 1406.179688 1123.644531 1409.617188 C 1146.558594 1346.71875 1183.539062 1289 1231.097656 1241.890625 C 1171.980469 1273.550781 1125.769531 1315.667969 1094.648438 1375.074219 Z M 1094.648438 1375.074219 " fill-opacity="1" fill-rule="nonzero"/><path fill="#ffffff" d="M 1151.695312 969.65625 C 1062.097656 1019.933594 1013.464844 1071.566406 986.6875 1173.753906 C 976.824219 1211.433594 960 1309.539062 980.484375 1413.144531 L 991.945312 1455.898438 C 986.679688 1447.066406 981.890625 1437.621094 975.21875 1430.621094 C 881.863281 1332.75 835.867188 1193.675781 868.894531 1062.496094 C 836.101562 1128.652344 824.683594 1205.191406 836.660156 1278.0625 C 847.984375 1347.035156 880.265625 1412.347656 928.046875 1463.367188 L 1054.4375 1463.367188 C 1006.746094 1298.175781 1044.757812 1101.167969 1151.695312 969.65625 Z M 1151.695312 969.65625 " fill-opacity="1" fill-rule="nonzero"/><path fill="#ffffff" d="M 737.71875 1209.835938 C 716.421875 1221.125 695.125 1232.417969 673.828125 1243.699219 C 658.851562 1251.640625 643.769531 1259.648438 630.5 1270.203125 C 608.402344 1287.796875 581.898438 1320.554688 576.445312 1348.265625 C 574.722656 1357.03125 582.214844 1373.625 585.792969 1381.8125 C 601.59375 1417.933594 624.328125 1451.007812 652.394531 1478.691406 C 686.808594 1476.925781 719.964844 1481.421875 754.378906 1479.660156 C 707.046875 1399.144531 700.492188 1295.5 737.71875 1209.835938 Z M 737.71875 1209.835938 " fill-opacity="1" fill-rule="nonzero"/><path fill="#ffffff" d="M 1049.632812 676.542969 C 1041.972656 673.160156 1031.625 672.167969 1023.972656 668.78125 C 1022.34375 682.742188 1031.226562 696.621094 1043.582031 703.324219 C 1055.9375 710.023438 1071.003906 710.34375 1084.621094 706.847656 C 1098.234375 703.347656 1110.660156 696.328125 1122.582031 688.875 C 1110.957031 692.878906 1096.144531 692.113281 1084.171875 689.316406 C 1072.195312 686.523438 1060.871094 681.523438 1049.632812 676.542969 Z M 1049.632812 676.542969 " fill-opacity="1" fill-rule="nonzero"/><g clip-path="url(#4decc9fbee)"><g clip-path="url(#4594984181)"><g clip-path="url(#cfbb94c61a)"><path fill="#ffffff" d="M 786.578125 432.371094 C 738.304688 487.660156 654.039062 493.394531 598.753906 445.121094 C 543.464844 396.847656 537.757812 312.609375 586.054688 257.292969 C 634.355469 201.972656 718.566406 196.296875 773.855469 244.570312 C 829.144531 292.84375 834.851562 377.082031 786.578125 432.371094 Z M 611.347656 430.691406 C 633.9375 450.414062 662.164062 459.5 690.046875 458.570312 C 690.207031 457.734375 690.335938 456.769531 690.449219 455.636719 C 690.324219 454.601562 686.363281 450.785156 681.851562 447.304688 L 681.675781 447.152344 L 681.550781 446.941406 C 681.488281 446.835938 675.847656 435.59375 665.847656 432.871094 C 655.0625 429.925781 643.546875 418.640625 642.460938 414.351562 C 641.527344 410.660156 638.144531 393.121094 637.992188 390.882812 C 637.878906 389.1875 632.597656 379.648438 631.75 378.445312 C 630.988281 377.316406 629.027344 366.207031 634.140625 360.703125 C 637.160156 357.539062 638.597656 352.066406 639.535156 348.464844 C 640.039062 346.59375 640.363281 345.335938 640.8125 344.648438 C 640.984375 344.390625 640.679688 343.507812 640.40625 342.703125 C 639.75 340.691406 638.71875 337.632812 639.675781 333.128906 C 639.921875 331.902344 640.21875 330.621094 640.492188 329.425781 C 641.457031 325.027344 642.777344 318.988281 642.300781 318.058594 C 642.015625 317.914062 640.785156 317.914062 639.824219 317.898438 C 636.175781 317.898438 630.0625 317.902344 626.105469 312.957031 C 620.652344 306.144531 620.898438 290.332031 621.597656 285.652344 C 622.023438 282.632812 607.976562 272.011719 604.644531 271.003906 C 603.664062 270.714844 602.542969 269.941406 601.410156 269.003906 C 601.128906 269.324219 600.792969 269.59375 600.511719 269.914062 C 559.128906 317.195312 564.015625 389.367188 611.347656 430.691406 Z M 618.578125 253.222656 C 619.867188 253.21875 620.964844 253.253906 621.355469 253.335938 C 621.6875 253.371094 622.835938 252.933594 623.691406 252.601562 C 625.613281 251.871094 627.808594 251.0625 629.417969 251.335938 C 631.746094 251.726562 637.402344 251.425781 639.164062 250.703125 C 641.40625 249.785156 659.632812 247.617188 661.707031 248.300781 C 666.835938 249.953125 673.027344 251.453125 675.167969 251.0625 C 679.011719 250.363281 680.53125 255.386719 681.097656 257.269531 L 681.207031 257.671875 C 681.902344 259.820312 677.425781 266.183594 676.460938 266.933594 C 675.574219 268.007812 673.957031 275.332031 674.5 276.417969 C 676.1875 277.894531 676.621094 286.695312 675.476562 288.007812 C 675.015625 288.53125 673.039062 292.148438 673.585938 295.347656 C 674.269531 299.332031 669.859375 307.5 668.179688 309.421875 C 666.550781 311.289062 664.535156 314.359375 663.757812 317.015625 C 663.015625 319.453125 659.414062 321.34375 655.484375 323.199219 C 654.632812 323.585938 653.941406 323.90625 653.574219 324.152344 C 652.390625 324.917969 648.675781 331.585938 648.0625 333.464844 C 648.027344 334.152344 650.121094 336.339844 651.175781 337.367188 C 652.5625 338.78125 653.359375 339.632812 653.601562 340.355469 C 653.949219 341.429688 653.210938 343.097656 651.566406 346.335938 C 651.15625 347.15625 650.597656 348.210938 650.386719 348.746094 C 650.894531 348.984375 651.820312 349.277344 652.546875 349.503906 C 655.433594 350.433594 657.347656 351.125 657.871094 352.40625 C 658.070312 352.886719 658.023438 353.410156 657.785156 353.921875 C 656.929688 355.484375 654.089844 356.089844 651.09375 356.757812 C 649.769531 357.039062 647.714844 357.507812 647.382812 357.832031 C 646.390625 358.96875 645.386719 362 644.652344 366.132812 C 644.238281 368.492188 650.832031 371.117188 654.015625 372.355469 C 655.621094 372.988281 656.75 373.460938 657.347656 373.832031 C 657.953125 374.253906 661.238281 372.140625 664.828125 368.03125 C 665.820312 366.894531 667.429688 365.578125 668.988281 364.265625 C 670.390625 363.128906 671.816406 361.910156 672.554688 361.0625 C 673.0625 360.480469 672.457031 358 672.078125 356.488281 C 671.472656 354.007812 670.988281 352.09375 672.207031 351.105469 C 673.929688 349.78125 675.925781 351.730469 677.335938 353.117188 C 677.804688 353.578125 678.304688 354.066406 678.59375 354.265625 C 679.652344 354.933594 685.066406 355.910156 687.617188 355.109375 C 690.703125 354.101562 697.082031 354.796875 698.398438 357.230469 C 699.300781 357.964844 704.875 356.460938 706.734375 355.980469 C 707.59375 355.757812 708.324219 355.570312 708.835938 355.453125 C 709.457031 355.328125 710.074219 355.09375 710.6875 354.859375 C 712.507812 354.1875 714.726562 353.351562 716.855469 355.210938 C 718.136719 356.332031 722.179688 352.875 724.59375 350.820312 C 725.164062 350.34375 725.679688 349.871094 726.199219 349.449219 C 727.808594 348.132812 728.957031 347.644531 729.933594 347.882812 C 731.183594 348.152344 731.789062 349.402344 732.460938 350.808594 C 732.65625 351.234375 732.875 351.628906 733.097656 352.082031 C 734.417969 354.570312 736.167969 355.328125 738.917969 354.648438 C 740.214844 354.339844 741.6875 353.007812 743.234375 351.585938 C 744.808594 350.136719 746.648438 348.503906 748.742188 347.457031 C 750.28125 346.695312 751.421875 346.5625 752.359375 347.019531 C 753.609375 347.648438 753.898438 349.082031 754.175781 350.351562 C 754.292969 350.867188 754.382812 351.40625 754.578125 351.832031 C 755.535156 354.207031 755.46875 356.875 755.421875 358.632812 C 755.40625 359.59375 757.339844 362.257812 758.519531 363.851562 C 759.277344 364.925781 759.96875 365.835938 760.34375 366.523438 C 760.71875 367.210938 760.742188 367.949219 760.4375 368.710938 C 759.734375 370.460938 757.230469 371.972656 755.574219 372.632812 C 755.789062 372.976562 756.210938 373.496094 756.480469 373.832031 C 757.253906 374.769531 757.972656 375.652344 758.0625 376.550781 C 758.101562 377.152344 758.132812 378.410156 758.183594 379.941406 C 758.222656 382.1875 758.304688 384.980469 758.433594 386.890625 C 758.511719 388.039062 758.0625 388.726562 757.59375 389.085938 C 756.148438 390.390625 753.324219 390.035156 750.578125 389.535156 C 750.21875 389.476562 749.910156 389.414062 749.6875 389.375 C 745.292969 388.824219 742.992188 387.277344 743.199219 385.042969 C 743.191406 384.933594 742.828125 384.410156 741.589844 383.945312 C 739.730469 383.25 737.792969 383.351562 737.308594 383.90625 C 737.28125 383.9375 737.28125 383.9375 737.28125 383.9375 C 735.953125 385.753906 733.296875 384.207031 730.671875 382.683594 C 729.726562 382.117188 728.1875 381.234375 727.492188 381.089844 C 727.460938 381.832031 728.390625 383.414062 732.316406 386.742188 L 732.785156 387.148438 C 733.277344 387.582031 733.558594 388.082031 733.542969 388.632812 C 733.550781 389.5625 732.855469 390.242188 732.238281 390.832031 C 731.4375 391.570312 731.136719 391.976562 731.25 392.433594 C 731.921875 394.664062 729.707031 400.847656 728.796875 403.183594 C 731.199219 405.4375 733.796875 407.753906 734.109375 407.925781 C 735.378906 408.058594 746.617188 405.132812 748.566406 403.957031 C 751.332031 402.316406 760.171875 400.019531 761.953125 399.570312 C 763.542969 399.160156 764.457031 399.699219 764.90625 400.246094 C 766.480469 402.085938 764.96875 406.464844 764.21875 408.328125 C 765.699219 411.570312 764.273438 413.203125 762.4375 415.25 C 761.519531 416.242188 760.5 417.410156 759.488281 419.039062 C 755.707031 425.191406 751.917969 429.945312 748.238281 433.101562 C 745.648438 435.359375 743.589844 439.011719 741.925781 441.976562 C 741.242188 443.171875 740.675781 444.171875 740.078125 445.035156 C 751.851562 438.726562 762.773438 430.335938 772.0625 419.695312 C 782.394531 407.863281 789.824219 394.472656 794.4375 380.421875 C 793.824219 379.476562 793.265625 378.472656 792.785156 377.488281 C 791.300781 374.191406 788.582031 368.476562 785.378906 365.679688 C 782.140625 362.855469 779.089844 359.46875 777.738281 358.957031 C 776.386719 358.445312 774.730469 344.929688 775.851562 343.234375 C 776.96875 341.542969 778.769531 341.417969 781.101562 341.808594 C 783.457031 342.171875 786.320312 342.363281 790.761719 341.511719 C 794.226562 340.839844 797.996094 335.8125 799.46875 333.65625 C 798.929688 328.097656 798.003906 322.566406 796.675781 317.089844 C 795.941406 317.222656 795.261719 317.296875 794.71875 317.332031 C 792.425781 317.488281 785.871094 317.929688 783.546875 315.183594 C 781.222656 312.433594 780.449219 306.671875 781.636719 301.546875 C 782.824219 296.421875 779.683594 292.957031 779.070312 292.425781 C 778.460938 291.890625 779.695312 284.238281 779.695312 284.238281 C 779.695312 284.238281 773.78125 282.71875 772.890625 283.738281 C 772 284.757812 767.152344 282.015625 765.488281 280.566406 C 763.828125 279.113281 762.78125 274.550781 762.941406 270.894531 C 763.117188 267.808594 768.515625 267.746094 770.21875 267.796875 C 767.96875 265.316406 765.503906 262.960938 762.988281 260.660156 C 761.078125 262.792969 756.480469 264.941406 754.496094 265.214844 C 752.023438 265.574219 739.242188 259.859375 736.921875 260.398438 C 734.65625 260.9375 718.320312 251.757812 716.714844 250.714844 C 715.167969 249.722656 707.957031 236.390625 709.414062 233.195312 C 678.300781 226.882812 645.007812 233.71875 618.578125 253.222656 Z M 618.578125 253.222656 " fill-opacity="1" fill-rule="nonzero"/></g></g></g><g clip-path="url(#292fbd692d)"><g clip-path="url(#1e81f3620e)"><g clip-path="url(#d2bab86e7d)"><path fill="#ffffff" d="M 897.328125 346.46875 C 893.839844 350.460938 887.808594 350.84375 883.84375 347.382812 L 874.3125 339.0625 C 875.667969 386.574219 859.617188 432.195312 828.1875 468.1875 C 795.132812 506.046875 749.3125 528.757812 699.199219 532.152344 C 650.171875 535.472656 602.496094 519.835938 565.003906 488.128906 C 560.957031 484.699219 560.46875 478.671875 563.871094 474.65625 C 563.894531 474.628906 563.945312 474.570312 563.972656 474.539062 C 567.40625 470.605469 573.355469 470.148438 577.339844 473.527344 C 611.054688 502.035156 653.851562 516.085938 697.878906 513.074219 C 742.917969 510.023438 784.039062 489.632812 813.738281 455.621094 C 841.625 423.675781 856.054688 383.265625 855.207031 341.179688 L 847.597656 349.890625 C 844.109375 353.886719 838.078125 354.265625 834.113281 350.804688 C 830.148438 347.34375 829.738281 341.285156 833.199219 337.320312 L 856.382812 310.769531 C 859.867188 306.777344 865.902344 306.394531 869.867188 309.855469 L 896.390625 333.011719 C 900.40625 336.472656 900.789062 342.503906 897.328125 346.46875 Z M 897.328125 346.46875 " fill-opacity="1" fill-rule="nonzero"/></g></g></g><g clip-path="url(#3513d298ae)"><g clip-path="url(#b1afed6d73)"><g clip-path="url(#05a4bb8525)"><path fill="#ffffff" d="M 517.582031 447.546875 L 508.152344 479.171875 C 507.867188 480.207031 506.574219 480.566406 505.757812 479.855469 L 474.195312 452.296875 C 473.757812 451.914062 473.578125 451.296875 473.761719 450.734375 L 483.191406 419.109375 C 483.476562 418.074219 484.769531 417.714844 485.585938 418.425781 L 517.148438 445.984375 C 517.585938 446.367188 517.765625 446.984375 517.582031 447.546875 Z M 517.582031 447.546875 " fill-opacity="1" fill-rule="nonzero"/></g></g></g><g clip-path="url(#ce6787c06e)"><g clip-path="url(#10e703ebbc)"><g clip-path="url(#e3d871ab4e)"><path fill="#ffffff" d="M 561.265625 438.226562 L 552.570312 467.359375 C 552.464844 467.78125 552.15625 468.128906 551.757812 468.292969 L 524.085938 480.808594 C 522.914062 481.324219 521.691406 480.257812 522.046875 479.027344 L 530.6875 449.894531 C 530.792969 449.476562 531.101562 449.125 531.5 448.960938 L 559.199219 436.472656 C 560.367188 435.902344 561.621094 436.996094 561.265625 438.226562 Z M 561.265625 438.226562 " fill-opacity="1" fill-rule="nonzero"/></g></g></g><g clip-path="url(#f1e061a90b)"><g clip-path="url(#e37faa3de9)"><g clip-path="url(#fffbf9beef)"><path fill="#ffffff" d="M 557.5 422.714844 L 527.433594 436.320312 C 526.90625 436.578125 526.265625 436.484375 525.832031 436.101562 L 494.265625 408.542969 C 493.449219 407.828125 493.632812 406.5 494.621094 406.078125 L 524.683594 392.46875 C 525.214844 392.214844 525.851562 392.308594 526.289062 392.6875 L 557.855469 420.25 C 558.695312 420.933594 558.484375 422.234375 557.5 422.714844 Z M 557.5 422.714844 " fill-opacity="1" fill-rule="nonzero"/></g></g></g></svg>